# xmcd
#
# Track frame offsets:
#	150
#	16244
#	28242
#	46956
#	73150
#	98090
#	116343
#	135139
#	157601
#	179324
#	193496
#	212167
#	237331
#
# Disc length: 3458 seconds
#
# Revision: 1
# Processed by: cddbd v1.5.2PL0 Copyright (c) Steve Scherf et al.
# Submitted via: audiograbber 1.83.01
#
DISCID=aa0d800d
DTITLE=Eva Cassidy - Live At Blues Alley
DYEAR=1996
DGENRE=Blues
TTITLE0=Cheek To Cheek
TTITLE1=Stormy Monday
TTITLE2=Bridge Over Troubled Water
TTITLE3=Fine And Mellow
TTITLE4=People Get Ready
TTITLE5=Blue Skies
TTITLE6=Tall Trees In Georgia
TTITLE7=Fields Of Gold
TTITLE8=Autumn Leaves
TTITLE9=Honey Suckle Rose
TTITLE10=Take Me To The River
TTITLE11=What A Wonderful World
TTITLE12=Golden Thread
EXTD=
EXTT0=
EXTT1=
EXTT2=
EXTT3=
EXTT4=
EXTT5=
EXTT6=
EXTT7=
EXTT8=
EXTT9=
EXTT10=
EXTT11=
EXTT12=
PLAYORDER=
